<svg width="16" height="16" viewBox="0 0 16 16" fill="none" xmlns="http://www.w3.org/2000/svg">
<path d="M6.87502 14.8875L0.275016 8.28746C0.175016 8.18746 0.104015 8.07913 0.0620154 7.96246C0.0200154 7.8458 -0.000651042 7.7208 1.56251e-05 7.58746C1.56251e-05 7.45413 0.0210158 7.32913 0.0630158 7.21246C0.105016 7.0958 0.175682 6.98746 0.275016 6.88746L6.87502 0.287463C7.05835 0.104129 7.28768 0.00846302 7.56302 0.000463024C7.83835 -0.00753698 8.07568 0.0881294 8.27501 0.287463C8.47501 0.470796 8.57935 0.70013 8.58802 0.975463C8.59668 1.2508 8.50068 1.48813 8.30002 1.68746L3.40002 6.58746H14.575C14.8583 6.58746 15.096 6.68346 15.288 6.87546C15.48 7.06746 15.5757 7.3048 15.575 7.58746C15.575 7.8708 15.4793 8.10846 15.288 8.30046C15.0967 8.49246 14.859 8.58813 14.575 8.58746H3.40002L8.30002 13.4875C8.48335 13.6708 8.57935 13.9041 8.58802 14.1875C8.59668 14.4708 8.50068 14.7041 8.30002 14.8875C8.11668 15.0875 7.88335 15.1875 7.60002 15.1875C7.31668 15.1875 7.07502 15.0875 6.87502 14.8875Z" fill="black"/>
</svg>
