<svg width="24" height="19" viewBox="0 0 24 19" fill="none" xmlns="http://www.w3.org/2000/svg">
<path d="M1 13.4038L6.68813 7.71572C6.91849 7.48535 7.19197 7.30262 7.49295 7.17795C7.79393 7.05327 8.11653 6.98911 8.44231 6.98911C8.76809 6.98911 9.09068 7.05327 9.39166 7.17795C9.69265 7.30262 9.96613 7.48535 10.1965 7.71572L15.8846 13.4038M14.2308 11.75L15.7843 10.1965C16.0146 9.96612 16.2881 9.78339 16.5891 9.65872C16.8901 9.53404 17.2127 9.46988 17.5385 9.46988C17.8642 9.46988 18.1868 9.53404 18.4878 9.65872C18.7888 9.78339 19.0623 9.96612 19.2926 10.1965L22.5 13.4038M2.65385 17.5385H20.8462C21.2848 17.5385 21.7054 17.3642 22.0156 17.0541C22.3258 16.7439 22.5 16.3232 22.5 15.8846V2.65385C22.5 2.21522 22.3258 1.79456 22.0156 1.4844C21.7054 1.17424 21.2848 1 20.8462 1H2.65385C2.21522 1 1.79456 1.17424 1.4844 1.4844C1.17424 1.79456 1 2.21522 1 2.65385V15.8846C1 16.3232 1.17424 16.7439 1.4844 17.0541C1.79456 17.3642 2.21522 17.5385 2.65385 17.5385ZM14.2308 5.13462H14.2396V5.14344H14.2308V5.13462ZM14.6442 5.13462C14.6442 5.24427 14.6007 5.34944 14.5231 5.42698C14.4456 5.50452 14.3404 5.54808 14.2308 5.54808C14.1211 5.54808 14.0159 5.50452 13.9384 5.42698C13.8609 5.34944 13.8173 5.24427 13.8173 5.13462C13.8173 5.02496 13.8609 4.91979 13.9384 4.84225C14.0159 4.76472 14.1211 4.72115 14.2308 4.72115C14.3404 4.72115 14.4456 4.76472 14.5231 4.84225C14.6007 4.91979 14.6442 5.02496 14.6442 5.13462Z" stroke="#335C32" stroke-width="2" stroke-linecap="round" stroke-linejoin="round"/>
</svg>
