<svg width="40" height="40" viewBox="0 0 40 40" fill="none" xmlns="http://www.w3.org/2000/svg">
<circle cx="20" cy="20" r="20" fill="white"/>
<path d="M15.3 29C14.6667 29 14.125 28.7707 13.675 28.312C13.225 27.8533 13 27.3077 13 26.675V17.4L11.175 13H10C9.71667 13 9.479 12.904 9.287 12.712C9.095 12.52 8.99934 12.2827 9 12C9 11.7167 9.096 11.479 9.288 11.287C9.48 11.095 9.71734 10.9993 10 11H11.85C12.05 11 12.2333 11.0583 12.4 11.175C12.5667 11.2917 12.6917 11.4417 12.775 11.625L14.175 15H28.95C29.3333 15 29.625 15.1583 29.825 15.475C30.025 15.7917 30.0333 16.1167 29.85 16.45L27 22.025C27.85 22.1583 28.5627 22.55 29.138 23.2C29.7133 23.85 30.0007 24.6167 30 25.5C30 26.4667 29.6627 27.2917 28.988 27.975C28.3133 28.6583 27.492 29 26.524 29C25.5407 29 24.7117 28.6583 24.037 27.975C23.3623 27.2917 23.025 26.4667 23.025 25.5C23.025 25.1667 23.0667 24.8583 23.15 24.575C23.2333 24.2917 23.35 24.0167 23.5 23.75L20.225 23.45L17.225 27.95C17.0083 28.2833 16.729 28.5417 16.387 28.725C16.045 28.9083 15.6827 29 15.3 29ZM24.85 21.875L27.325 17L15 17.025L16.25 20C16.3833 20.3333 16.596 20.6127 16.888 20.838C17.18 21.0633 17.5173 21.1923 17.9 21.225L24.85 21.875ZM15.325 26.975C15.3583 26.975 15.4333 26.9333 15.55 26.85L17.975 23.25C17.1583 23.1667 16.5167 22.971 16.05 22.663C15.5833 22.355 15.2333 22.034 15 21.7V26.7C15 26.7833 15.0333 26.85 15.1 26.9C15.1667 26.95 15.2417 26.975 15.325 26.975ZM26.5 27C26.9333 27 27.2917 26.854 27.575 26.562C27.8583 26.27 28 25.916 28 25.5C28 25.0667 27.8583 24.7083 27.575 24.425C27.2917 24.1417 26.9333 24 26.5 24C26.0833 24 25.729 24.1417 25.437 24.425C25.145 24.7083 24.9993 25.0667 25 25.5C25 25.9167 25.146 26.271 25.438 26.563C25.73 26.855 26.084 27.0007 26.5 27Z" fill="#313131"/>
</svg>
