<svg width="33" height="19" viewBox="0 0 33 19" fill="none" xmlns="http://www.w3.org/2000/svg">
<path d="M30.8068 6.16137H27.1241L21.5647 0.602026C21.3747 0.410485 21.1485 0.258625 20.8993 0.155276C20.6501 0.0519264 20.3828 -0.000851601 20.113 1.03907e-05H5.68385C5.34651 0.000634977 5.01451 0.084346 4.71721 0.243746C4.4199 0.403146 4.16643 0.633326 3.97921 0.913945L0.172004 6.61833C0.0601398 6.78739 0.000334841 6.98555 0 7.18826L0 13.3496C0 13.8943 0.21638 14.4167 0.60154 14.8019C0.986699 15.187 1.50909 15.4034 2.05378 15.4034H4.23593C4.46216 16.287 4.97601 17.0701 5.69649 17.6293C6.41697 18.1886 7.30308 18.4921 8.21514 18.4921C9.12719 18.4921 10.0133 18.1886 10.7338 17.6293C11.4543 17.0701 11.9681 16.287 12.1943 15.4034H20.6662C20.8924 16.287 21.4063 17.0701 22.1268 17.6293C22.8472 18.1886 23.7334 18.4921 24.6454 18.4921C25.5575 18.4921 26.4436 18.1886 27.1641 17.6293C27.8845 17.0701 28.3984 16.287 28.6246 15.4034H30.8068C31.3515 15.4034 31.8739 15.187 32.259 14.8019C32.6442 14.4167 32.8606 13.8943 32.8606 13.3496V8.21515C32.8606 7.67045 32.6442 7.14807 32.259 6.76291C31.8739 6.37775 31.3515 6.16137 30.8068 6.16137ZM5.68385 2.0538H20.113L24.2205 6.16137H2.95232L5.68385 2.0538ZM8.21514 16.4303C7.80894 16.4303 7.41186 16.3098 7.07412 16.0842C6.73637 15.8585 6.47313 15.5377 6.31769 15.1625C6.16224 14.7872 6.12157 14.3742 6.20082 13.9758C6.28006 13.5774 6.47567 13.2115 6.76289 12.9243C7.05012 12.637 7.41607 12.4414 7.81447 12.3622C8.21286 12.2829 8.62581 12.3236 9.00109 12.4791C9.37637 12.6345 9.69713 12.8977 9.9228 13.2355C10.1485 13.5732 10.2689 13.9703 10.2689 14.3765C10.2689 14.9212 10.0525 15.4436 9.66738 15.8288C9.28222 16.2139 8.75984 16.4303 8.21514 16.4303ZM24.6454 16.4303C24.2392 16.4303 23.8421 16.3098 23.5044 16.0842C23.1666 15.8585 22.9034 15.5377 22.748 15.1625C22.5925 14.7872 22.5518 14.3742 22.6311 13.9758C22.7103 13.5774 22.9059 13.2115 23.1932 12.9243C23.4804 12.637 23.8463 12.4414 24.2447 12.3622C24.6431 12.2829 25.0561 12.3236 25.4314 12.4791C25.8066 12.6345 26.1274 12.8977 26.3531 13.2355C26.5787 13.5732 26.6992 13.9703 26.6992 14.3765C26.6992 14.9212 26.4828 15.4436 26.0977 15.8288C25.7125 16.2139 25.1901 16.4303 24.6454 16.4303ZM30.8068 13.3496H28.6246C28.3984 12.4661 27.8845 11.6829 27.1641 11.1237C26.4436 10.5644 25.5575 10.2609 24.6454 10.2609C23.7334 10.2609 22.8472 10.5644 22.1268 11.1237C21.4063 11.6829 20.8924 12.4661 20.6662 13.3496H12.1943C11.9681 12.4661 11.4543 11.6829 10.7338 11.1237C10.0133 10.5644 9.12719 10.2609 8.21514 10.2609C7.30308 10.2609 6.41697 10.5644 5.69649 11.1237C4.97601 11.6829 4.46216 12.4661 4.23593 13.3496H2.05378V8.21515H30.8068V13.3496Z" fill="#335C32"/>
</svg>
