<svg width="20" height="20" viewBox="0 0 20 20" fill="none" xmlns="http://www.w3.org/2000/svg">
<rect width="20" height="20" rx="3" fill="#D8E4D7"/>
<path d="M14.2857 10.7143H10.7143V14.2857C10.7143 14.4752 10.639 14.6568 10.5051 14.7908C10.3711 14.9247 10.1894 15 10 15C9.81056 15 9.62888 14.9247 9.49492 14.7908C9.36097 14.6568 9.28571 14.4752 9.28571 14.2857V10.7143H5.71429C5.52485 10.7143 5.34316 10.639 5.20921 10.5051C5.07526 10.3711 5 10.1894 5 10C5 9.81056 5.07526 9.62888 5.20921 9.49492C5.34316 9.36097 5.52485 9.28571 5.71429 9.28571H9.28571V5.71429C9.28571 5.52485 9.36097 5.34316 9.49492 5.20921C9.62888 5.07525 9.81056 5 10 5C10.1894 5 10.3711 5.07525 10.5051 5.20921C10.639 5.34316 10.7143 5.52485 10.7143 5.71429V9.28571H14.2857C14.4752 9.28571 14.6568 9.36097 14.7908 9.49492C14.9247 9.62888 15 9.81056 15 10C15 10.1894 14.9247 10.3711 14.7908 10.5051C14.6568 10.639 14.4752 10.7143 14.2857 10.7143Z" fill="#335C32"/>
</svg>
