<svg width="20" height="20" viewBox="0 0 20 20" fill="none" xmlns="http://www.w3.org/2000/svg">
<g clip-path="url(#clip0_2225_11072)">
<path d="M1.66699 4.99984H18.3337M8.33366 9.1665V13.3332M11.667 9.1665V13.3332M3.33366 4.99984H16.667L15.3503 16.8498C15.3052 17.2576 15.1112 17.6345 14.8055 17.9082C14.4999 18.1819 14.104 18.3332 13.6937 18.3332H6.30699C5.89669 18.3332 5.50079 18.1819 5.19511 17.9082C4.88944 17.6345 4.69546 17.2576 4.65032 16.8498L3.33366 4.99984ZM6.12116 2.62234C6.25595 2.33648 6.46925 2.09483 6.73616 1.9256C7.00308 1.75636 7.31261 1.6665 7.62866 1.6665H12.372C12.6882 1.66634 12.9979 1.75613 13.265 1.92537C13.532 2.09462 13.7455 2.33635 13.8803 2.62234L15.0003 4.99984H5.00032L6.12116 2.62234Z" stroke="#7B7B7B" stroke-width="2" stroke-linecap="round" stroke-linejoin="round"/>
</g>
<defs>
<clipPath id="clip0_2225_11072">
<rect width="20" height="20" fill="white"/>
</clipPath>
</defs>
</svg>
