<svg width="73" height="117" viewBox="0 0 73 117" fill="none" xmlns="http://www.w3.org/2000/svg">
<rect width="73" height="117" rx="10" fill="#D9D9D9"/>
<path d="M24.1667 34H40.4868C41.3044 34.0002 42.0886 34.3251 42.6667 34.9034L54.0966 46.3333C54.6749 46.9114 54.9998 47.6956 55 48.5133V65.7368L46.5825 57.3193C46.2656 57.0033 45.8838 56.76 45.4635 56.6064C45.0432 56.4528 44.5944 56.3926 44.1485 56.4298C43.7025 56.4671 43.2701 56.601 42.8811 56.8222C42.492 57.0434 42.1559 57.3466 41.8958 57.7108L36.0714 65.8632L30.617 62.5887C30.0274 62.2344 29.3362 62.0875 28.6535 62.1713C27.9707 62.2551 27.3356 62.5648 26.8492 63.0512L18 71.9003V40.1667C18 38.5312 18.6497 36.9626 19.8062 35.8062C20.9626 34.6497 22.5312 34 24.1667 34ZM41.125 38.625V44.7917C41.125 45.6094 41.4499 46.3937 42.0281 46.9719C42.6063 47.5502 43.3906 47.875 44.2083 47.875H50.375L41.125 38.625ZM36.5062 50.9583C36.5062 49.7317 36.0189 48.5553 35.1515 47.688C34.2842 46.8206 33.1078 46.3333 31.8812 46.3333C30.6545 46.3333 29.4782 46.8206 28.6108 47.688C27.7434 48.5553 27.2562 49.7317 27.2562 50.9583C27.2562 52.185 27.7434 53.3613 28.6108 54.2287C29.4782 55.0961 30.6545 55.5833 31.8812 55.5833C33.1078 55.5833 34.2842 55.0961 35.1515 54.2287C36.0189 53.3613 36.5062 52.185 36.5062 50.9583Z" fill="#989898"/>
<path d="M44.4057 59.4985L55 70.099V77.166C55 78.8015 54.3503 80.3701 53.1938 81.5265C52.0373 82.683 50.4688 83.3327 48.8333 83.3327H24.1667C22.5312 83.3327 20.9626 82.683 19.8062 81.5265C18.6497 80.3701 18 78.8015 18 77.166V76.2626L29.0322 65.2335L36.9255 69.9695L44.4057 59.4985Z" fill="#989898"/>
</svg>
